<svg width="49" height="48" viewBox="0 0 49 48" fill="none" xmlns="http://www.w3.org/2000/svg">
<rect x="0.5" width="48" height="48" rx="24" fill="#EBF8FF"/>
<path d="M24.5 24C25.05 24 25.5208 23.8042 25.9125 23.4125C26.3042 23.0208 26.5 22.55 26.5 22C26.5 21.45 26.3042 20.9792 25.9125 20.5875C25.5208 20.1958 25.05 20 24.5 20C23.95 20 23.4792 20.1958 23.0875 20.5875C22.6958 20.9792 22.5 21.45 22.5 22C22.5 22.55 22.6958 23.0208 23.0875 23.4125C23.4792 23.8042 23.95 24 24.5 24ZM24.5 31.35C26.5333 29.4833 28.0417 27.7875 29.025 26.2625C30.0083 24.7375 30.5 23.3833 30.5 22.2C30.5 20.3833 29.9208 18.8958 28.7625 17.7375C27.6042 16.5792 26.1833 16 24.5 16C22.8167 16 21.3958 16.5792 20.2375 17.7375C19.0792 18.8958 18.5 20.3833 18.5 22.2C18.5 23.3833 18.9917 24.7375 19.975 26.2625C20.9583 27.7875 22.4667 29.4833 24.5 31.35ZM24.5 34C21.8167 31.7167 19.8125 29.5958 18.4875 27.6375C17.1625 25.6792 16.5 23.8667 16.5 22.2C16.5 19.7 17.3042 17.7083 18.9125 16.225C20.5208 14.7417 22.3833 14 24.5 14C26.6167 14 28.4792 14.7417 30.0875 16.225C31.6958 17.7083 32.5 19.7 32.5 22.2C32.5 23.8667 31.8375 25.6792 30.5125 27.6375C29.1875 29.5958 27.1833 31.7167 24.5 34Z" fill="#76D1FF"/>
</svg>
